<svg id="5b43c3dc-c078-42cc-8712-8f0383348758" data-name="Capa 1" xmlns="http://www.w3.org/2000/svg" viewBox="0 0 1074.8 704.86"><defs><style>.\31 3d0b909-dfee-44fd-a83f-43e7f253ee9b,.\38 5c5c8f1-f9d0-46af-a061-f9555cc921c0,.ec4de643-d327-40ec-97cf-de479b4acbee{fill:none;stroke-miterlimit:10;}.\38 5c5c8f1-f9d0-46af-a061-f9555cc921c0,.ec4de643-d327-40ec-97cf-de479b4acbee{stroke:#1d1d1b;}.\38 5c5c8f1-f9d0-46af-a061-f9555cc921c0{stroke-linecap:round;}.\31 3d0b909-dfee-44fd-a83f-43e7f253ee9b{stroke:#6d716a;}.\37 7777ad9-5397-4425-9b3b-25ba4921b54a{fill:#73736e;}</style></defs><title>retrato radrigan 2c</title><path class="ec4de643-d327-40ec-97cf-de479b4acbee iQweqMVY_0" d="M436.19,127.38s-12.67,22-12.67,24-8.67,37.33-8.67,42.67-2.67,42,0,46-8,7.33-14,2.67-3.33-10.67-3.33-10.67-6.67,4-8-4,0-20.67,0-20.67-4,3.33-8,2-5.33-3.33,0-6,10.67-13.06,11.33-17.2,2.67-16.8,3.33-19.47a206.8,206.8,0,0,1,7.33-21.33c2.67-6,8.67-11.33,14-14S436.19,127.38,436.19,127.38Z" transform="translate(-52.56 -83.57)"></path><path class="ec4de643-d327-40ec-97cf-de479b4acbee iQweqMVY_1" d="M436.19,127.38s18.95-22.12,36.2-28.83C526,77.72,567.1,77.72,621.52,109.39c2.88,1.67,19.33,14.66,21.33,22s11.33,50.67,11.33,50.67,10.67,48,10.67,58,12-3.33,13.33-8.67,15.88-17.33,19.94-12.67,2,47,3.39,52.33-5.69,46.86-8,52.33c-12.23,29-13.43,24.14-23.43,23.12-2.1-.21-3-14.12-1.9-23.12" transform="translate(-52.56 -83.57)"></path><path class="ec4de643-d327-40ec-97cf-de479b4acbee iQweqMVY_2" d="M671.52,264.05c2-4,2.67,3.33,2.67,6s1.33,10.67,3.33,12" transform="translate(-52.56 -83.57)"></path><path class="ec4de643-d327-40ec-97cf-de479b4acbee iQweqMVY_3" d="M545.52,222.72s8-8,9.33-10,12-7.53,19.33-6.76,19.33,0.76,24.67,2.76,20,2,23.33,2.67,14.67,11.33,14.67,11.33" transform="translate(-52.56 -83.57)"></path><path class="ec4de643-d327-40ec-97cf-de479b4acbee iQweqMVY_4" d="M428.19,214.3s9.33-6.59,14.67-8.42,36-5.16,36-5.16l15.33,5.16,12.67,8.42v8.42" transform="translate(-52.56 -83.57)"></path><path class="ec4de643-d327-40ec-97cf-de479b4acbee iQweqMVY_5" d="M388.94,220.46s-7.7,8.26-7.34,22.51c0.19,7.42.58,41.75,3.25,44.42s4.67,22.67,5.33,29.33,4.42,21.75,8.67,30.26c2,4,14,4.41,14,4.41h5.33l21.17,41,28.17,49.38,15.29,46,43.17,34,15,13" transform="translate(-52.56 -83.57)"></path><path class="ec4de643-d327-40ec-97cf-de479b4acbee iQweqMVY_6" d="M410.85,262.88s-0.67,2.67,0,9.58-4.68,12.25-5.5,16.25c-0.93,4.54,4.25,12.67,5.54,15.33" transform="translate(-52.56 -83.57)"></path><path class="ec4de643-d327-40ec-97cf-de479b4acbee iQweqMVY_7" d="M439.35,244s4.25-12.25,7.75-15.25,11.25-6,17.25-6,15,2.75,20.5,5.25,16.25,8.75,16.25,8.75" transform="translate(-52.56 -83.57)"></path><path class="85c5c8f1-f9d0-46af-a061-f9555cc921c0 iQweqMVY_8" d="M447.44,238.13c0.75-.5,15.67-5.45,26.71-4.79,6.36,0.38,15.75,6.13,15.75,6.13" transform="translate(-52.56 -83.57)"></path><path class="ec4de643-d327-40ec-97cf-de479b4acbee iQweqMVY_9" d="M375.63,156.98L383.63,161.42"></path><path class="ec4de643-d327-40ec-97cf-de479b4acbee iQweqMVY_10" d="M422.1,256.72s9.42-5.25,14.08-4.25" transform="translate(-52.56 -83.57)"></path><path class="85c5c8f1-f9d0-46af-a061-f9555cc921c0 iQweqMVY_11" d="M563.27,235.47s10.17-6.17,10.83-6.75,4.5-4.25,8.92-4.33,11.58,2.33,11.83,2.42,10.58,2.16,12.25,3.12,8.5,4,9.58,5a54.5,54.5,0,0,0,6.25,3.67" transform="translate(-52.56 -83.57)"></path><path class="13d0b909-dfee-44fd-a83f-43e7f253ee9b iQweqMVY_12" d="M442.85,150.22s48-18.25,56.5-15,26.5,7.61,27.25,7.31,32.75-3.31,32.75-3.31" transform="translate(-52.56 -83.57)"></path><path class="13d0b909-dfee-44fd-a83f-43e7f253ee9b iQweqMVY_13" d="M522.6,131.22c0,0.75,6.75,24,6.75,24v27.25" transform="translate(-52.56 -83.57)"></path><path class="13d0b909-dfee-44fd-a83f-43e7f253ee9b iQweqMVY_14" d="M501.1,142.52s4.5,14.44,7.25,16.19,14.5,14.25,14.25,17-2,34.25-3.5,36-7.25,5-7.25,5" transform="translate(-52.56 -83.57)"></path><path class="13d0b909-dfee-44fd-a83f-43e7f253ee9b iQweqMVY_15" d="M557.6,150.22c-1.5,5.25-10.25,20.75-10.5,25.5s0,21.75,0,21.75l3.75,10.5" transform="translate(-52.56 -83.57)"></path><path class="13d0b909-dfee-44fd-a83f-43e7f253ee9b iQweqMVY_16" d="M610.35,126.22c-6.75,4.25-16,11-16,13.75s-7.5,22-7.5,22-8.75,12.25-10.5,15.5-7.41,7.5-7.41,7.5" transform="translate(-52.56 -83.57)"></path><path class="13d0b909-dfee-44fd-a83f-43e7f253ee9b iQweqMVY_17" d="M514.85,319.88s-1.75-6.75-4-7.25-5-1.22-5.37.22c-0.58,2,4.38,4,5.88,4.78A29.16,29.16,0,0,1,514.85,319.88Z" transform="translate(-52.56 -83.57)"></path><path class="13d0b909-dfee-44fd-a83f-43e7f253ee9b iQweqMVY_18" d="M546.1,319.88s5.93-4.43,7.41-5.06,3.5-.42,3.18.63-3.39,4-3.71,4.08S546.1,319.88,546.1,319.88Z" transform="translate(-52.56 -83.57)"></path><path class="ec4de643-d327-40ec-97cf-de479b4acbee iQweqMVY_19" d="M508.1,288.84s-7.5,8.5-7.87,13,1,10.88,2,11.75,5.63,6.5,6.63,7" transform="translate(-52.56 -83.57)"></path><path class="ec4de643-d327-40ec-97cf-de479b4acbee iQweqMVY_20" d="M520,266.22s1.5,37.75,1.13,38.5-3.75-1.12-3.75-1.12" transform="translate(-52.56 -83.57)"></path><path class="ec4de643-d327-40ec-97cf-de479b4acbee iQweqMVY_21" d="M537.73,270.72c-0.25.38-.37,25.75,1,27.75a71.23,71.23,0,0,0,5.63,6.25" transform="translate(-52.56 -83.57)"></path><path class="ec4de643-d327-40ec-97cf-de479b4acbee iQweqMVY_22" d="M496.48,315.94c-0.37.28-12.5,20.53-13.25,21.91s-7.75,15.75-7.75,17.63V361" transform="translate(-52.56 -83.57)"></path><path class="ec4de643-d327-40ec-97cf-de479b4acbee iQweqMVY_23" d="M501,375.84c1.38-.37,17.36-9.87,24.22-9.21a55.35,55.35,0,0,1,13.23,2.73s7.23-4.17,12-3.77c5.82,0.48,24.38,9.25,24.38,9.25-1.08,1.11-14.26-.21-14.26-0.21l-14.07,1.83s0.34-4.74-6.17-4.63c-7.12.13-7.25,3.13-7.62,3.88s-15.75-1.62-18.25-1.37S497.28,376.85,501,375.84Z" transform="translate(-52.56 -83.57)"></path><path class="ec4de643-d327-40ec-97cf-de479b4acbee iQweqMVY_24" d="M530.1,412.88a4.61,4.61,0,0,1,4.38-4.16c1.13,0,5.38,1.38,4.75,5.88-0.29,2.1-4.08,2.29-6,2.38C531,417.07,530,414.26,530.1,412.88Z" transform="translate(-52.56 -83.57)"></path><path class="85c5c8f1-f9d0-46af-a061-f9555cc921c0 iQweqMVY_25" d="M476.67,331.02L480.11,294.92L481.74,289.74"></path><path class="85c5c8f1-f9d0-46af-a061-f9555cc921c0 iQweqMVY_26" d="M538.73,410a9,9,0,0,1,1.77,2.92c1,2.25,6-36.42,6-36.42" transform="translate(-52.56 -83.57)"></path><path class="85c5c8f1-f9d0-46af-a061-f9555cc921c0 iQweqMVY_27" d="M508.85,375.22s0.5,1.24,7.25,4a66.37,66.37,0,0,0,14,3.75h1.7" transform="translate(-52.56 -83.57)"></path><path class="85c5c8f1-f9d0-46af-a061-f9555cc921c0 iQweqMVY_28" d="M493.97,299.4L507.22,296.9L514.54,291.65"></path><path class="85c5c8f1-f9d0-46af-a061-f9555cc921c0 iQweqMVY_29" d="M532.86,340.22l15.74,7.21s7-4.77,8.21-7.21c1-2.05.54-7.25-1.71-9s-18.8-3.93-18.8-3.93c0.45,0-5.77,1.68-6.24,4.43C529.77,333.44,532.86,340.22,532.86,340.22Z" transform="translate(-52.56 -83.57)"></path><path class="ec4de643-d327-40ec-97cf-de479b4acbee iQweqMVY_30" d="M572.6,334.22l-18.75-7.75s2.75-1.37,4.25-2,6.88-8,6.88-8,1.63-10,0-15.25-10-10.87-10-10.87" transform="translate(-52.56 -83.57)"></path><path class="ec4de643-d327-40ec-97cf-de479b4acbee iQweqMVY_31" d="M554.44,326.71c4,0-21.11-2-22.52-.87-1.7,1.42-3.69,6.5-3.69,6.5s-0.23,9,1.38,10.25c2.63,2,14.25,7.88,19.5,11.13s19.84,14.5,19.84,14.5L600.35,383l23.5,14.5,16.5,7.5h6.25" transform="translate(-52.56 -83.57)"></path><path class="ec4de643-d327-40ec-97cf-de479b4acbee iQweqMVY_32" d="M638.35,405s-18.5,3.75-24.25,3.75S591.6,405,591.6,405l-20.5-3H543.45" transform="translate(-52.56 -83.57)"></path><path class="85c5c8f1-f9d0-46af-a061-f9555cc921c0 iQweqMVY_33" d="M527.56,402s-29.7-1.5-33.7-2-19.62,3.08-19.62,3.08" transform="translate(-52.56 -83.57)"></path><path class="ec4de643-d327-40ec-97cf-de479b4acbee iQweqMVY_34" d="M470.85,405.34c-2.08,2.76-3.25,6.13-1.75,9.25s19,5.38,22.25,4.63,7-14,5.13-15.5-22.62,0-22.62,0S471.37,404.66,470.85,405.34Z" transform="translate(-52.56 -83.57)"></path><path class="85c5c8f1-f9d0-46af-a061-f9555cc921c0 iQweqMVY_35" d="M470,416.34s13.13,11.13,16,11.38,29.63,4.5,38.13,4.5,27.75,6.25,29.75,6.5,35.34,3.5,37,4.25,20.2,3.25,20.2,3.25" transform="translate(-52.56 -83.57)"></path><path class="ec4de643-d327-40ec-97cf-de479b4acbee iQweqMVY_36" d="M498,452.52c0.71,1.43-1,15.7-1,15.7s-13.38,1.25-14.88,0-1.75-13.5,2.25-14.5S498,452.52,498,452.52Z" transform="translate(-52.56 -83.57)"></path><path class="ec4de643-d327-40ec-97cf-de479b4acbee iQweqMVY_37" d="M611.1,448l-44-1.75-25,1.75s-48.75,2-50,2.25-9.81,1.25-12.25,5.13c-2.12,3.38-.12,17,3,19.38,1.36,1.05,21.75,2.75,22,2.75S548.6,480,548.6,480l55.75,1.75,9.75-3.5" transform="translate(-52.56 -83.57)"></path><path class="ec4de643-d327-40ec-97cf-de479b4acbee iQweqMVY_38" d="M520.64,483.39L518,492.91s-11.38-.81-12.1-2.56-2.75-6.25,4-7.75C512.48,482,520.64,483.39,520.64,483.39Z" transform="translate(-52.56 -83.57)"></path><path class="ec4de643-d327-40ec-97cf-de479b4acbee iQweqMVY_39" d="M544.46,480.72c-3.5,0-35.11.38-36.48,0.5s-4.5,4.67-4.62,6.46,2.5,6.29,3.5,6.92,4.38,2.5,6.63,4,19.88,4.5,25.25,5.38,26.38,4.38,26.38,4.38l27.25,8.37,6.38,3.38,3.5-2.12-2.5,2.13,2.5,4.13s5.38,2.63,5.88,2.63,5-4.37,5-4.37l-3.87,5.38a22.92,22.92,0,0,1,2.88,1.88c1.88,1.38,5.5,4,5.5,4l3.5,1.88,6.5,1,19,14.63,35,20.25,12.5,6.5h2.5l6-42.75,12.25-20.75s11-29.36,14-33.43,17-14.57,19.5-16.32,17.5-5.06,17.5-5.06-10.5-22.94-23.75-29.19S704.35,402,704.35,402l-24-23.24s-9-15.44-12.61-18.81c-0.3-.27-3.31,1.35-3.12,2.3,0.51,2.52,3.76,8.09,5.66,10.35,1.51,1.8,6.86,6.44,6.86,6.44a0.61,0.61,0,0,0,.54.15l2.34-1" transform="translate(-52.56 -83.57)"></path><path class="ec4de643-d327-40ec-97cf-de479b4acbee iQweqMVY_40" d="M665.47,361a12.1,12.1,0,0,0-9.87,13.5,35.44,35.44,0,0,0,2.25,7s-29.25-21.25-37.25-24.75-34-14-35.75-14.75-13.71-8.35-13.71-8.35" transform="translate(-52.56 -83.57)"></path><path class="85c5c8f1-f9d0-46af-a061-f9555cc921c0 iQweqMVY_41" d="M640.35,121.22c5-1,14.5-4.17,21,6.17s16.17,28.21,16.17,28.21l9.83,18.13s7,11,7,20v18l15,2.58" transform="translate(-52.56 -83.57)"></path><path class="ec4de643-d327-40ec-97cf-de479b4acbee iQweqMVY_42" d="M174.85,452.47l36-19.68,54.2-13.43s48-20.89,64.8-25.41c15.86-4.26,49.3-7.53,64-14.86,7.1-3.54,24.33-20.38,24.33-20.38s1,30.91,0,41.15c-1.63,16.27-12.95,64.1-12.95,64.1L378,487.68l-46.15-19.33s7.78-39.61,14.17-51.28c5.74-10.49,29.34-32,29.34-32" transform="translate(-52.56 -83.57)"></path><path class="ec4de643-d327-40ec-97cf-de479b4acbee iQweqMVY_43" d="M352.68,391.15L369.55,419.15L406.8,459.15L447.05,494.4L460.26,518.15L475,541.15L477.51,548.15L489.55,574.15L494.43,600.48"></path><path class="ec4de643-d327-40ec-97cf-de479b4acbee iQweqMVY_44" d="M801.85,474.72c2,2,7,36,0,47s-17,41-25,51-28,21-32,26-20,12-23,16,14,5,20,10,32,15,32,15l20,5s36-27,37-30,16-35.33,16-35.33,14-48.67,19-55.67,0-24,0-24-15-9.08-20-12-42-18.9-42-18.9Z" transform="translate(-52.56 -83.57)"></path><path class="ec4de643-d327-40ec-97cf-de479b4acbee iQweqMVY_45" d="M668.9,361c14.33,0,29.81,10.76,39,13.25s45,3,50,8.75,66,11,66,11,28,11.76,31,14.76,25,5.88,25,5.88,17,0.08,18,8.6,20,6.52,22,15.52a88.6,88.6,0,0,0,4,13.75l22,16.31,6,18.9,9,25,12,17,27,18,25,9,42,22.64,30,19.33,20,32,10,28v37S1093,782.34,1066,787.15c-48.58,8.64-116.08-57.36-116.08-57.36s-139.49-49.5-145.49-52.5-18.72-24.78-18.72-34.61" transform="translate(-52.56 -83.57)"></path><path class="ec4de643-d327-40ec-97cf-de479b4acbee iQweqMVY_46" d="M455.19,513.72c-3.33-1-33.08-49.75-33.08-49.75l7-24.25s21.38,5.5,26,12.75,12.33,29.25,12.33,29.25l18.46,18s10.38,16,13.63,14,19.66,8,19.66,8" transform="translate(-52.56 -83.57)"></path><path class="85c5c8f1-f9d0-46af-a061-f9555cc921c0 iQweqMVY_47" d="M609.54,275.15L612.29,263.86L615.16,250.04"></path><path class="77777ad9-5397-4425-9b3b-25ba4921b54a iQweqMVY_48" d="M71.37,655q0,9-3.8,13.94a12.13,12.13,0,0,1-10.16,5,12,12,0,0,1-4.85-.84V667.2a8.21,8.21,0,0,0,4.92,1.37q8,0,8-13.54V622.62h5.91V655Z" transform="translate(-52.56 -83.57)"></path><path class="77777ad9-5397-4425-9b3b-25ba4921b54a iQweqMVY_49" d="M112.5,673h-5.77v-5.7h-0.14a11.84,11.84,0,0,1-11.11,6.54q-12.87,0-12.87-15.33V637h5.73v20.6q0,11.39,8.72,11.39a8.82,8.82,0,0,0,6.94-3.11,11.9,11.9,0,0,0,2.72-8.14V637h5.77v36Z" transform="translate(-52.56 -83.57)"></path><path class="77777ad9-5397-4425-9b3b-25ba4921b54a iQweqMVY_50" d="M149.91,673h-5.77v-5.62H144a12.07,12.07,0,0,1-11.07,6.47q-5.38,0-8.42-2.85a9.87,9.87,0,0,1-3-7.56q0-10.09,11.88-11.74l10.79-1.51q0-9.18-7.42-9.18A17.72,17.72,0,0,0,125,645.47v-5.91a22.31,22.31,0,0,1,12.23-3.37q12.69,0,12.69,13.43V673Zm-5.77-18.21-8.68,1.2a14.1,14.1,0,0,0-6,2q-2,1.42-2,5a5.49,5.49,0,0,0,1.88,4.31,7.27,7.27,0,0,0,5,1.67,9.25,9.25,0,0,0,7.08-3,10.74,10.74,0,0,0,2.79-7.61v-3.59Z" transform="translate(-52.56 -83.57)"></path><path class="77777ad9-5397-4425-9b3b-25ba4921b54a iQweqMVY_51" d="M190.65,673h-5.77V652.5q0-11.46-8.37-11.46a9.08,9.08,0,0,0-7.15,3.25,12.05,12.05,0,0,0-2.83,8.21V673h-5.77V637h5.77v6h0.14a13,13,0,0,1,11.81-6.82q5.91,0,9,3.81t3.13,11v22Z" transform="translate(-52.56 -83.57)"></path><path class="77777ad9-5397-4425-9b3b-25ba4921b54a iQweqMVY_52" d="M258.15,673h-7l-8.44-14.13a30.78,30.78,0,0,0-2.25-3.36,12.83,12.83,0,0,0-2.23-2.27,7.73,7.73,0,0,0-2.46-1.28,10.12,10.12,0,0,0-3-.4h-4.85V673H222V622.62h15a21.44,21.44,0,0,1,6.1.83A13.65,13.65,0,0,1,248,626a11.68,11.68,0,0,1,3.22,4.2,13.93,13.93,0,0,1,1.16,5.89,14.18,14.18,0,0,1-.79,4.83,12.62,12.62,0,0,1-2.25,3.92,13.64,13.64,0,0,1-3.52,2.94,18,18,0,0,1-4.62,1.88v0.14a10.63,10.63,0,0,1,2.2,1.28,12.09,12.09,0,0,1,1.78,1.71,22.58,22.58,0,0,1,1.67,2.23q0.83,1.25,1.85,2.9ZM227.92,628v18.28h8a12.16,12.16,0,0,0,4.1-.67,9.48,9.48,0,0,0,3.25-1.92,8.69,8.69,0,0,0,2.14-3.06,10.24,10.24,0,0,0,.77-4.06,7.9,7.9,0,0,0-2.62-6.31Q241,628,236,628h-8.09Z" transform="translate(-52.56 -83.57)"></path><path class="77777ad9-5397-4425-9b3b-25ba4921b54a iQweqMVY_53" d="M290.08,673h-5.77v-5.62h-0.14a12.07,12.07,0,0,1-11.07,6.47q-5.38,0-8.42-2.85a9.87,9.87,0,0,1-3-7.56q0-10.09,11.88-11.74l10.79-1.51q0-9.18-7.42-9.18a17.72,17.72,0,0,0-11.74,4.43v-5.91a22.31,22.31,0,0,1,12.23-3.37q12.69,0,12.69,13.43V673Zm-5.77-18.21-8.68,1.2a14.1,14.1,0,0,0-6,2q-2,1.42-2,5a5.49,5.49,0,0,0,1.88,4.31,7.27,7.27,0,0,0,5,1.67,9.25,9.25,0,0,0,7.08-3,10.74,10.74,0,0,0,2.79-7.61v-3.59Z" transform="translate(-52.56 -83.57)"></path><path class="77777ad9-5397-4425-9b3b-25ba4921b54a iQweqMVY_54" d="M331.67,673H325.9v-6.12h-0.14q-4,7-12.37,7A13.45,13.45,0,0,1,302.54,669q-4.06-4.83-4.06-13.17,0-8.93,4.5-14.31a14.84,14.84,0,0,1,12-5.38q7.42,0,10.79,5.84h0.14V619.74h5.77V673Zm-5.77-16.28v-5.31a10.3,10.3,0,0,0-2.88-7.38,9.67,9.67,0,0,0-7.31-3,10,10,0,0,0-8.3,3.87q-3,3.87-3,10.69,0,6.22,2.9,9.83a9.48,9.48,0,0,0,7.79,3.6,9.85,9.85,0,0,0,7.82-3.48A13,13,0,0,0,325.9,656.76Z" transform="translate(-52.56 -83.57)"></path><path class="77777ad9-5397-4425-9b3b-25ba4921b54a iQweqMVY_55" d="M362.11,642.87a7.05,7.05,0,0,0-4.36-1.16,7.36,7.36,0,0,0-6.17,3.48q-2.48,3.48-2.48,9.49V673h-5.77V637h5.77v7.42h0.14a12.57,12.57,0,0,1,3.76-5.92,8.58,8.58,0,0,1,5.66-2.13,9.41,9.41,0,0,1,3.45.49v6Z" transform="translate(-52.56 -83.57)"></path><path class="77777ad9-5397-4425-9b3b-25ba4921b54a iQweqMVY_56" d="M371.32,627.89a3.65,3.65,0,0,1-2.64-1.05,3.56,3.56,0,0,1-1.09-2.67,3.69,3.69,0,0,1,3.73-3.76,3.72,3.72,0,0,1,2.69,1.07,3.76,3.76,0,0,1,0,5.33A3.69,3.69,0,0,1,371.32,627.89ZM374.13,673h-5.77V637h5.77v36Z" transform="translate(-52.56 -83.57)"></path><path class="77777ad9-5397-4425-9b3b-25ba4921b54a iQweqMVY_57" d="M416.53,670.15q0,19.83-19,19.83a25.49,25.49,0,0,1-11.67-2.53v-5.77a24,24,0,0,0,11.6,3.38q13.29,0,13.29-14.13V667h-0.14a14.57,14.57,0,0,1-23.19,2.09q-4.1-4.8-4.1-12.88,0-9.18,4.41-14.59t12.08-5.41q7.28,0,10.79,5.84h0.14v-5h5.77v33.12Zm-5.77-13.39v-5.31a10.3,10.3,0,0,0-2.9-7.35,9.55,9.55,0,0,0-7.22-3.06,10,10,0,0,0-8.37,3.88q-3,3.88-3,10.88,0,6,2.9,9.62a9.37,9.37,0,0,0,7.68,3.6,10,10,0,0,0,7.89-3.45A12.84,12.84,0,0,0,410.77,656.76Z" transform="translate(-52.56 -83.57)"></path><path class="77777ad9-5397-4425-9b3b-25ba4921b54a iQweqMVY_58" d="M454,673h-5.77v-5.62h-0.14A12.07,12.07,0,0,1,437,673.88q-5.38,0-8.42-2.85a9.87,9.87,0,0,1-3-7.56q0-10.09,11.88-11.74l10.79-1.51q0-9.18-7.42-9.18A17.72,17.72,0,0,0,429,645.47v-5.91a22.31,22.31,0,0,1,12.23-3.37q12.69,0,12.69,13.43V673Zm-5.77-18.21-8.68,1.2a14.1,14.1,0,0,0-6,2q-2,1.42-2,5a5.49,5.49,0,0,0,1.88,4.31,7.27,7.27,0,0,0,5,1.67,9.25,9.25,0,0,0,7.08-3,10.74,10.74,0,0,0,2.79-7.61v-3.59ZM449,618.68l-9.21,11.53h-4.46l7.84-11.53H449Z" transform="translate(-52.56 -83.57)"></path><path class="77777ad9-5397-4425-9b3b-25ba4921b54a iQweqMVY_59" d="M494.72,673H489V652.5Q489,641,480.59,641a9.08,9.08,0,0,0-7.15,3.25,12.05,12.05,0,0,0-2.83,8.21V673h-5.77V637h5.77v6h0.14a13,13,0,0,1,11.81-6.82q5.91,0,9,3.81t3.13,11v22Z" transform="translate(-52.56 -83.57)"></path><path class="13d0b909-dfee-44fd-a83f-43e7f253ee9b iQweqMVY_60" d="M452.5,237.72s11.38,2.44,15,2.86,15.15-2.86,15.15-2.86" transform="translate(-52.56 -83.57)"></path><path class="13d0b909-dfee-44fd-a83f-43e7f253ee9b iQweqMVY_61" d="M575,234.92s7.82,4.55,9.22,4.83a48.28,48.28,0,0,0,8.1-.14c2.12-.36,7.83-3.6,7.83-3.6" transform="translate(-52.56 -83.57)"></path><path class="85c5c8f1-f9d0-46af-a061-f9555cc921c0 iQweqMVY_62" d="M563.69,242.05c0.5-.17,6.08-3.92,6.33-3.92s5.54-3.81,7.58-4.67a28.63,28.63,0,0,1,7.75-1.5,38.37,38.37,0,0,1,9.36,1.45c2.92,0.83,10.06,4,10.06,4" transform="translate(-52.56 -83.57)"></path><style>.iQweqMVY_0{stroke-dasharray:300 302;stroke-dashoffset:301;animation:iQweqMVY_draw_0 27400ms linear 0ms infinite,iQweqMVY_fade 27400ms linear 0ms infinite;}.iQweqMVY_1{stroke-dasharray:560 562;stroke-dashoffset:561;animation:iQweqMVY_draw_1 27400ms linear 0ms infinite,iQweqMVY_fade 27400ms linear 0ms infinite;}.iQweqMVY_2{stroke-dasharray:22 24;stroke-dashoffset:23;animation:iQweqMVY_draw_2 27400ms linear 0ms infinite,iQweqMVY_fade 27400ms linear 0ms infinite;}.iQweqMVY_3{stroke-dasharray:102 104;stroke-dashoffset:103;animation:iQweqMVY_draw_3 27400ms linear 0ms infinite,iQweqMVY_fade 27400ms linear 0ms infinite;}.iQweqMVY_4{stroke-dasharray:94 96;stroke-dashoffset:95;animation:iQweqMVY_draw_4 27400ms linear 0ms infinite,iQweqMVY_fade 27400ms linear 0ms infinite;}.iQweqMVY_5{stroke-dasharray:378 380;stroke-dashoffset:379;animation:iQweqMVY_draw_5 27400ms linear 0ms infinite,iQweqMVY_fade 27400ms linear 0ms infinite;}.iQweqMVY_6{stroke-dasharray:44 46;stroke-dashoffset:45;animation:iQweqMVY_draw_6 27400ms linear 0ms infinite,iQweqMVY_fade 27400ms linear 0ms infinite;}.iQweqMVY_7{stroke-dasharray:76 78;stroke-dashoffset:77;animation:iQweqMVY_draw_7 27400ms linear 0ms infinite,iQweqMVY_fade 27400ms linear 0ms infinite;}.iQweqMVY_8{stroke-dasharray:45 47;stroke-dashoffset:46;animation:iQweqMVY_draw_8 27400ms linear 0ms infinite,iQweqMVY_fade 27400ms linear 0ms infinite;}.iQweqMVY_9{stroke-dasharray:10 12;stroke-dashoffset:11;animation:iQweqMVY_draw_9 27400ms linear 0ms infinite,iQweqMVY_fade 27400ms linear 0ms infinite;}.iQweqMVY_10{stroke-dasharray:15 17;stroke-dashoffset:16;animation:iQweqMVY_draw_10 27400ms linear 0ms infinite,iQweqMVY_fade 27400ms linear 0ms infinite;}.iQweqMVY_11{stroke-dasharray:66 68;stroke-dashoffset:67;animation:iQweqMVY_draw_11 27400ms linear 0ms infinite,iQweqMVY_fade 27400ms linear 0ms infinite;}.iQweqMVY_12{stroke-dasharray:121 123;stroke-dashoffset:122;animation:iQweqMVY_draw_12 27400ms linear 0ms infinite,iQweqMVY_fade 27400ms linear 0ms infinite;}.iQweqMVY_13{stroke-dasharray:53 55;stroke-dashoffset:54;animation:iQweqMVY_draw_13 27400ms linear 0ms infinite,iQweqMVY_fade 27400ms linear 0ms infinite;}.iQweqMVY_14{stroke-dasharray:86 88;stroke-dashoffset:87;animation:iQweqMVY_draw_14 27400ms linear 0ms infinite,iQweqMVY_fade 27400ms linear 0ms infinite;}.iQweqMVY_15{stroke-dasharray:61 63;stroke-dashoffset:62;animation:iQweqMVY_draw_15 27400ms linear 0ms infinite,iQweqMVY_fade 27400ms linear 0ms infinite;}.iQweqMVY_16{stroke-dasharray:75 77;stroke-dashoffset:76;animation:iQweqMVY_draw_16 27400ms linear 0ms infinite,iQweqMVY_fade 27400ms linear 0ms infinite;}.iQweqMVY_17{stroke-dasharray:27 29;stroke-dashoffset:28;animation:iQweqMVY_draw_17 27400ms linear 0ms infinite,iQweqMVY_fade 27400ms linear 0ms infinite;}.iQweqMVY_18{stroke-dasharray:26 28;stroke-dashoffset:27;animation:iQweqMVY_draw_18 27400ms linear 0ms infinite,iQweqMVY_fade 27400ms linear 0ms infinite;}.iQweqMVY_19{stroke-dasharray:38 40;stroke-dashoffset:39;animation:iQweqMVY_draw_19 27400ms linear 0ms infinite,iQweqMVY_fade 27400ms linear 0ms infinite;}.iQweqMVY_20{stroke-dasharray:43 45;stroke-dashoffset:44;animation:iQweqMVY_draw_20 27400ms linear 0ms infinite,iQweqMVY_fade 27400ms linear 0ms infinite;}.iQweqMVY_21{stroke-dasharray:37 39;stroke-dashoffset:38;animation:iQweqMVY_draw_21 27400ms linear 0ms infinite,iQweqMVY_fade 27400ms linear 0ms infinite;}.iQweqMVY_22{stroke-dasharray:51 53;stroke-dashoffset:52;animation:iQweqMVY_draw_22 27400ms linear 0ms infinite,iQweqMVY_fade 27400ms linear 0ms infinite;}.iQweqMVY_23{stroke-dasharray:159 161;stroke-dashoffset:160;animation:iQweqMVY_draw_23 27400ms linear 0ms infinite,iQweqMVY_fade 27400ms linear 0ms infinite;}.iQweqMVY_24{stroke-dasharray:28 30;stroke-dashoffset:29;animation:iQweqMVY_draw_24 27400ms linear 0ms infinite,iQweqMVY_fade 27400ms linear 0ms infinite;}.iQweqMVY_25{stroke-dasharray:42 44;stroke-dashoffset:43;animation:iQweqMVY_draw_25 27400ms linear 0ms infinite,iQweqMVY_fade 27400ms linear 0ms infinite;}.iQweqMVY_26{stroke-dasharray:41 43;stroke-dashoffset:42;animation:iQweqMVY_draw_26 27400ms linear 0ms infinite,iQweqMVY_fade 27400ms linear 0ms infinite;}.iQweqMVY_27{stroke-dasharray:25 27;stroke-dashoffset:26;animation:iQweqMVY_draw_27 27400ms linear 0ms infinite,iQweqMVY_fade 27400ms linear 0ms infinite;}.iQweqMVY_28{stroke-dasharray:23 25;stroke-dashoffset:24;animation:iQweqMVY_draw_28 27400ms linear 0ms infinite,iQweqMVY_fade 27400ms linear 0ms infinite;}.iQweqMVY_29{stroke-dasharray:75 77;stroke-dashoffset:76;animation:iQweqMVY_draw_29 27400ms linear 0ms infinite,iQweqMVY_fade 27400ms linear 0ms infinite;}.iQweqMVY_30{stroke-dasharray:66 68;stroke-dashoffset:67;animation:iQweqMVY_draw_30 27400ms linear 0ms infinite,iQweqMVY_fade 27400ms linear 0ms infinite;}.iQweqMVY_31{stroke-dasharray:176 178;stroke-dashoffset:177;animation:iQweqMVY_draw_31 27400ms linear 0ms infinite,iQweqMVY_fade 27400ms linear 0ms infinite;}.iQweqMVY_32{stroke-dasharray:96 98;stroke-dashoffset:97;animation:iQweqMVY_draw_32 27400ms linear 0ms infinite,iQweqMVY_fade 27400ms linear 0ms infinite;}.iQweqMVY_33{stroke-dasharray:54 56;stroke-dashoffset:55;animation:iQweqMVY_draw_33 27400ms linear 0ms infinite,iQweqMVY_fade 27400ms linear 0ms infinite;}.iQweqMVY_34{stroke-dasharray:77 79;stroke-dashoffset:78;animation:iQweqMVY_draw_34 27400ms linear 0ms infinite,iQweqMVY_fade 27400ms linear 0ms infinite;}.iQweqMVY_35{stroke-dasharray:147 149;stroke-dashoffset:148;animation:iQweqMVY_draw_35 27400ms linear 0ms infinite,iQweqMVY_fade 27400ms linear 0ms infinite;}.iQweqMVY_36{stroke-dasharray:61 63;stroke-dashoffset:62;animation:iQweqMVY_draw_36 27400ms linear 0ms infinite,iQweqMVY_fade 27400ms linear 0ms infinite;}.iQweqMVY_37{stroke-dasharray:286 288;stroke-dashoffset:287;animation:iQweqMVY_draw_37 27400ms linear 0ms infinite,iQweqMVY_fade 27400ms linear 0ms infinite;}.iQweqMVY_38{stroke-dasharray:44 46;stroke-dashoffset:45;animation:iQweqMVY_draw_38 27400ms linear 0ms infinite,iQweqMVY_fade 27400ms linear 0ms infinite;}.iQweqMVY_39{stroke-dasharray:600 602;stroke-dashoffset:601;animation:iQweqMVY_draw_39 27400ms linear 0ms infinite,iQweqMVY_fade 27400ms linear 0ms infinite;}.iQweqMVY_40{stroke-dasharray:126 128;stroke-dashoffset:127;animation:iQweqMVY_draw_40 27400ms linear 0ms infinite,iQweqMVY_fade 27400ms linear 0ms infinite;}.iQweqMVY_41{stroke-dasharray:132 134;stroke-dashoffset:133;animation:iQweqMVY_draw_41 27400ms linear 0ms infinite,iQweqMVY_fade 27400ms linear 0ms infinite;}.iQweqMVY_42{stroke-dasharray:554 556;stroke-dashoffset:555;animation:iQweqMVY_draw_42 27400ms linear 0ms infinite,iQweqMVY_fade 27400ms linear 0ms infinite;}.iQweqMVY_43{stroke-dasharray:259 261;stroke-dashoffset:260;animation:iQweqMVY_draw_43 27400ms linear 0ms infinite,iQweqMVY_fade 27400ms linear 0ms infinite;}.iQweqMVY_44{stroke-dasharray:500 502;stroke-dashoffset:501;animation:iQweqMVY_draw_44 27400ms linear 0ms infinite,iQweqMVY_fade 27400ms linear 0ms infinite;}.iQweqMVY_45{stroke-dasharray:1067 1069;stroke-dashoffset:1068;animation:iQweqMVY_draw_45 27400ms linear 0ms infinite,iQweqMVY_fade 27400ms linear 0ms infinite;}.iQweqMVY_46{stroke-dasharray:214 216;stroke-dashoffset:215;animation:iQweqMVY_draw_46 27400ms linear 0ms infinite,iQweqMVY_fade 27400ms linear 0ms infinite;}.iQweqMVY_47{stroke-dasharray:26 28;stroke-dashoffset:27;animation:iQweqMVY_draw_47 27400ms linear 0ms infinite,iQweqMVY_fade 27400ms linear 0ms infinite;}.iQweqMVY_48{stroke-dasharray:131 133;stroke-dashoffset:132;animation:iQweqMVY_draw_48 27400ms linear 0ms infinite,iQweqMVY_fade 27400ms linear 0ms infinite;}.iQweqMVY_49{stroke-dasharray:192 194;stroke-dashoffset:193;animation:iQweqMVY_draw_49 27400ms linear 0ms infinite,iQweqMVY_fade 27400ms linear 0ms infinite;}.iQweqMVY_50{stroke-dasharray:213 215;stroke-dashoffset:214;animation:iQweqMVY_draw_50 27400ms linear 0ms infinite,iQweqMVY_fade 27400ms linear 0ms infinite;}.iQweqMVY_51{stroke-dasharray:192 194;stroke-dashoffset:193;animation:iQweqMVY_draw_51 27400ms linear 0ms infinite,iQweqMVY_fade 27400ms linear 0ms infinite;}.iQweqMVY_52{stroke-dasharray:271 273;stroke-dashoffset:272;animation:iQweqMVY_draw_52 27400ms linear 0ms infinite,iQweqMVY_fade 27400ms linear 0ms infinite;}.iQweqMVY_53{stroke-dasharray:213 215;stroke-dashoffset:214;animation:iQweqMVY_draw_53 27400ms linear 0ms infinite,iQweqMVY_fade 27400ms linear 0ms infinite;}.iQweqMVY_54{stroke-dasharray:257 259;stroke-dashoffset:258;animation:iQweqMVY_draw_54 27400ms linear 0ms infinite,iQweqMVY_fade 27400ms linear 0ms infinite;}.iQweqMVY_55{stroke-dasharray:119 121;stroke-dashoffset:120;animation:iQweqMVY_draw_55 27400ms linear 0ms infinite,iQweqMVY_fade 27400ms linear 0ms infinite;}.iQweqMVY_56{stroke-dasharray:108 110;stroke-dashoffset:109;animation:iQweqMVY_draw_56 27400ms linear 0ms infinite,iQweqMVY_fade 27400ms linear 0ms infinite;}.iQweqMVY_57{stroke-dasharray:295 297;stroke-dashoffset:296;animation:iQweqMVY_draw_57 27400ms linear 0ms infinite,iQweqMVY_fade 27400ms linear 0ms infinite;}.iQweqMVY_58{stroke-dasharray:252 254;stroke-dashoffset:253;animation:iQweqMVY_draw_58 27400ms linear 0ms infinite,iQweqMVY_fade 27400ms linear 0ms infinite;}.iQweqMVY_59{stroke-dasharray:192 194;stroke-dashoffset:193;animation:iQweqMVY_draw_59 27400ms linear 0ms infinite,iQweqMVY_fade 27400ms linear 0ms infinite;}.iQweqMVY_60{stroke-dasharray:31 33;stroke-dashoffset:32;animation:iQweqMVY_draw_60 27400ms linear 0ms infinite,iQweqMVY_fade 27400ms linear 0ms infinite;}.iQweqMVY_61{stroke-dasharray:28 30;stroke-dashoffset:29;animation:iQweqMVY_draw_61 27400ms linear 0ms infinite,iQweqMVY_fade 27400ms linear 0ms infinite;}.iQweqMVY_62{stroke-dasharray:45 47;stroke-dashoffset:46;animation:iQweqMVY_draw_62 27400ms linear 0ms infinite,iQweqMVY_fade 27400ms linear 0ms infinite;}@keyframes iQweqMVY_draw{100%{stroke-dashoffset:0;}}@keyframes iQweqMVY_fade{0%{stroke-opacity:1;}98.54014598540147%{stroke-opacity:1;}100%{stroke-opacity:0;}}@keyframes iQweqMVY_draw_0{9.48905109489051%{stroke-dashoffset: 301}12.031034918934203%{ stroke-dashoffset: 0;}100%{ stroke-dashoffset: 0;}}@keyframes iQweqMVY_draw_1{12.031034918934203%{stroke-dashoffset: 561}16.768752278696695%{ stroke-dashoffset: 0;}100%{ stroke-dashoffset: 0;}}@keyframes iQweqMVY_draw_2{16.768752278696695%{stroke-dashoffset: 23}16.962990245317975%{ stroke-dashoffset: 0;}100%{ stroke-dashoffset: 0;}}@keyframes iQweqMVY_draw_3{16.962990245317975%{stroke-dashoffset: 103}17.832838530621963%{ stroke-dashoffset: 0;}100%{ stroke-dashoffset: 0;}}@keyframes iQweqMVY_draw_4{17.832838530621963%{stroke-dashoffset: 95}18.635125784057678%{ stroke-dashoffset: 0;}100%{ stroke-dashoffset: 0;}}@keyframes iQweqMVY_draw_5{18.635125784057678%{stroke-dashoffset: 379}21.835829668817013%{ stroke-dashoffset: 0;}100%{ stroke-dashoffset: 0;}}@keyframes iQweqMVY_draw_6{21.835829668817013%{stroke-dashoffset: 45}22.215860473076035%{ stroke-dashoffset: 0;}100%{ stroke-dashoffset: 0;}}@keyframes iQweqMVY_draw_7{22.215860473076035%{stroke-dashoffset: 77}22.866135404808144%{ stroke-dashoffset: 0;}100%{ stroke-dashoffset: 0;}}@keyframes iQweqMVY_draw_8{22.866135404808148%{stroke-dashoffset: 46}23.254611338050704%{ stroke-dashoffset: 0;}100%{ stroke-dashoffset: 0;}}@keyframes iQweqMVY_draw_9{23.254611338050697%{stroke-dashoffset: 11}23.34750775686957%{ stroke-dashoffset: 0;}100%{ stroke-dashoffset: 0;}}@keyframes iQweqMVY_draw_10{23.347507756869575%{stroke-dashoffset: 16}23.482629820606114%{ stroke-dashoffset: 0;}100%{ stroke-dashoffset: 0;}}@keyframes iQweqMVY_draw_11{23.482629820606114%{stroke-dashoffset: 67}24.048453462502888%{ stroke-dashoffset: 0;}100%{ stroke-dashoffset: 0;}}@keyframes iQweqMVY_draw_12{24.04845346250288%{stroke-dashoffset: 122}25.078759198494012%{ stroke-dashoffset: 0;}100%{ stroke-dashoffset: 0;}}@keyframes iQweqMVY_draw_13{25.078759198494012%{stroke-dashoffset: 54}25.534796163604838%{ stroke-dashoffset: 0;}100%{ stroke-dashoffset: 0;}}@keyframes iQweqMVY_draw_14{25.534796163604845%{stroke-dashoffset: 87}26.26952238517229%{ stroke-dashoffset: 0;}100%{ stroke-dashoffset: 0;}}@keyframes iQweqMVY_draw_15{26.26952238517229%{stroke-dashoffset: 62}26.793120382151386%{ stroke-dashoffset: 0;}100%{ stroke-dashoffset: 0;}}@keyframes iQweqMVY_draw_16{26.793120382151386%{stroke-dashoffset: 76}27.434950184899957%{ stroke-dashoffset: 0;}100%{ stroke-dashoffset: 0;}}@keyframes iQweqMVY_draw_17{27.434950184899957%{stroke-dashoffset: 28}27.67141379643891%{ stroke-dashoffset: 0;}100%{ stroke-dashoffset: 0;}}@keyframes iQweqMVY_draw_18{27.67141379643891%{stroke-dashoffset: 27}27.899432278994325%{ stroke-dashoffset: 0;}100%{ stroke-dashoffset: 0;}}@keyframes iQweqMVY_draw_19{27.899432278994325%{stroke-dashoffset: 39}28.22879230935214%{ stroke-dashoffset: 0;}100%{ stroke-dashoffset: 0;}}@keyframes iQweqMVY_draw_20{28.22879230935214%{stroke-dashoffset: 44}28.600377984627634%{ stroke-dashoffset: 0;}100%{ stroke-dashoffset: 0;}}@keyframes iQweqMVY_draw_21{28.600377984627634%{stroke-dashoffset: 38}28.921292886001922%{ stroke-dashoffset: 0;}100%{ stroke-dashoffset: 0;}}@keyframes iQweqMVY_draw_22{28.921292886001922%{stroke-dashoffset: 52}29.36043959314568%{ stroke-dashoffset: 0;}100%{ stroke-dashoffset: 0;}}@keyframes iQweqMVY_draw_23{29.36043959314568%{stroke-dashoffset: 160}30.711660230511097%{ stroke-dashoffset: 0;}100%{ stroke-dashoffset: 0;}}@keyframes iQweqMVY_draw_24{30.711660230511097%{stroke-dashoffset: 29}30.956568971033583%{ stroke-dashoffset: 0;}100%{ stroke-dashoffset: 0;}}@keyframes iQweqMVY_draw_25{30.956568971033583%{stroke-dashoffset: 43}31.31970951732554%{ stroke-dashoffset: 0;}100%{ stroke-dashoffset: 0;}}@keyframes iQweqMVY_draw_26{31.31970951732554%{stroke-dashoffset: 42}31.674404934633955%{ stroke-dashoffset: 0;}100%{ stroke-dashoffset: 0;}}@keyframes iQweqMVY_draw_27{31.674404934633955%{stroke-dashoffset: 26}31.893978288205833%{ stroke-dashoffset: 0;}100%{ stroke-dashoffset: 0;}}@keyframes iQweqMVY_draw_28{31.893978288205844%{stroke-dashoffset: 24}32.096661383810655%{ stroke-dashoffset: 0;}100%{ stroke-dashoffset: 0;}}@keyframes iQweqMVY_draw_29{32.096661383810655%{stroke-dashoffset: 76}32.73849118655923%{ stroke-dashoffset: 0;}100%{ stroke-dashoffset: 0;}}@keyframes iQweqMVY_draw_30{32.73849118655923%{stroke-dashoffset: 67}33.30431482845599%{ stroke-dashoffset: 0;}100%{ stroke-dashoffset: 0;}}@keyframes iQweqMVY_draw_31{33.30431482845599%{stroke-dashoffset: 177}34.799102658541486%{ stroke-dashoffset: 0;}100%{ stroke-dashoffset: 0;}}@keyframes iQweqMVY_draw_32{34.799102658541486%{stroke-dashoffset: 97}35.61828016994427%{ stroke-dashoffset: 0;}100%{ stroke-dashoffset: 0;}}@keyframes iQweqMVY_draw_33{35.61828016994426%{stroke-dashoffset: 55}36.08276226403863%{ stroke-dashoffset: 0;}100%{ stroke-dashoffset: 0;}}@keyframes iQweqMVY_draw_34{36.082762264038635%{stroke-dashoffset: 78}36.74148232475428%{ stroke-dashoffset: 0;}100%{ stroke-dashoffset: 0;}}@keyframes iQweqMVY_draw_35{36.74148232475427%{stroke-dashoffset: 148}37.99136141431728%{ stroke-dashoffset: 0;}100%{ stroke-dashoffset: 0;}}@keyframes iQweqMVY_draw_36{37.99136141431728%{stroke-dashoffset: 62}38.51495941129638%{ stroke-dashoffset: 0;}100%{ stroke-dashoffset: 0;}}@keyframes iQweqMVY_draw_37{38.51495941129638%{stroke-dashoffset: 287}40.9387114295706%{ stroke-dashoffset: 0;}100%{ stroke-dashoffset: 0;}}@keyframes iQweqMVY_draw_38{40.9387114295706%{stroke-dashoffset: 45}41.318742233829624%{ stroke-dashoffset: 0;}100%{ stroke-dashoffset: 0;}}@keyframes iQweqMVY_draw_39{41.318742233829624%{stroke-dashoffset: 601}46.39426475293347%{ stroke-dashoffset: 0;}100%{ stroke-dashoffset: 0;}}@keyframes iQweqMVY_draw_40{46.39426475293347%{stroke-dashoffset: 127}47.46679613384227%{ stroke-dashoffset: 0;}100%{ stroke-dashoffset: 0;}}@keyframes iQweqMVY_draw_41{47.46679613384227%{stroke-dashoffset: 133}48.589998288652275%{ stroke-dashoffset: 0;}100%{ stroke-dashoffset: 0;}}@keyframes iQweqMVY_draw_42{48.589998288652275%{stroke-dashoffset: 555}53.27704487451357%{ stroke-dashoffset: 0;}100%{ stroke-dashoffset: 0;}}@keyframes iQweqMVY_draw_43{53.27704487451357%{stroke-dashoffset: 260}55.47277841023237%{ stroke-dashoffset: 0;}100%{ stroke-dashoffset: 0;}}@keyframes iQweqMVY_draw_44{55.47277841023237%{stroke-dashoffset: 501}59.70378803098283%{ stroke-dashoffset: 0;}100%{ stroke-dashoffset: 0;}}@keyframes iQweqMVY_draw_45{59.70378803098284%{stroke-dashoffset: 1068}68.723185785397%{ stroke-dashoffset: 0;}100%{ stroke-dashoffset: 0;}}@keyframes iQweqMVY_draw_46{68.72318578539699%{stroke-dashoffset: 215}70.53888851685677%{ stroke-dashoffset: 0;}100%{ stroke-dashoffset: 0;}}@keyframes iQweqMVY_draw_47{70.53888851685677%{stroke-dashoffset: 27}70.7669069994122%{ stroke-dashoffset: 0;}100%{ stroke-dashoffset: 0;}}@keyframes iQweqMVY_draw_48{70.7669069994122%{stroke-dashoffset: 132}71.88166402523866%{ stroke-dashoffset: 0;}100%{ stroke-dashoffset: 0;}}@keyframes iQweqMVY_draw_49{71.88166402523866%{stroke-dashoffset: 193}73.51157391906071%{ stroke-dashoffset: 0;}100%{ stroke-dashoffset: 0;}}@keyframes iQweqMVY_draw_50{73.51157391906071%{stroke-dashoffset: 214}75.31883152153695%{ stroke-dashoffset: 0;}100%{ stroke-dashoffset: 0;}}@keyframes iQweqMVY_draw_51{75.31883152153694%{stroke-dashoffset: 193}76.94874141535897%{ stroke-dashoffset: 0;}100%{ stroke-dashoffset: 0;}}@keyframes iQweqMVY_draw_52{76.94874141535898%{stroke-dashoffset: 272}79.24581649888019%{ stroke-dashoffset: 0;}100%{ stroke-dashoffset: 0;}}@keyframes iQweqMVY_draw_53{79.24581649888017%{stroke-dashoffset: 214}81.05307410135643%{ stroke-dashoffset: 0;}100%{ stroke-dashoffset: 0;}}@keyframes iQweqMVY_draw_54{81.05307410135643%{stroke-dashoffset: 258}83.23191737910817%{ stroke-dashoffset: 0;}100%{ stroke-dashoffset: 0;}}@keyframes iQweqMVY_draw_55{83.23191737910817%{stroke-dashoffset: 120}84.24533285713223%{ stroke-dashoffset: 0;}100%{ stroke-dashoffset: 0;}}@keyframes iQweqMVY_draw_56{84.24533285713223%{stroke-dashoffset: 109}85.16585191633742%{ stroke-dashoffset: 0;}100%{ stroke-dashoffset: 0;}}@keyframes iQweqMVY_draw_57{85.1658519163374%{stroke-dashoffset: 296}87.66561009546344%{ stroke-dashoffset: 0;}100%{ stroke-dashoffset: 0;}}@keyframes iQweqMVY_draw_58{87.66561009546344%{stroke-dashoffset: 253}89.8022277282975%{ stroke-dashoffset: 0;}100%{ stroke-dashoffset: 0;}}@keyframes iQweqMVY_draw_59{89.8022277282975%{stroke-dashoffset: 193}91.43213762211954%{ stroke-dashoffset: 0;}100%{ stroke-dashoffset: 0;}}@keyframes iQweqMVY_draw_60{91.43213762211954%{stroke-dashoffset: 32}91.7023817495926%{ stroke-dashoffset: 0;}100%{ stroke-dashoffset: 0;}}@keyframes iQweqMVY_draw_61{91.70238174959263%{stroke-dashoffset: 29}91.94729049011511%{ stroke-dashoffset: 0;}100%{ stroke-dashoffset: 0;}}@keyframes iQweqMVY_draw_62{91.94729049011511%{stroke-dashoffset: 46}92.33576642335767%{ stroke-dashoffset: 0;}100%{ stroke-dashoffset: 0;}}</style></svg>