<!--?xml version="1.0" encoding="utf-8"?-->
<!-- Generator: Adobe Illustrator 19.2.1, SVG Export Plug-In . SVG Version: 6.00 Build 0)  -->
<svg version="1.1" id="Capa_1" xmlns="http://www.w3.org/2000/svg" xmlns:xlink="http://www.w3.org/1999/xlink" x="0px" y="0px" viewBox="0 0 1190.6 841.9" xml:space="preserve">
<style type="text/css">
	.st0{fill:none;stroke:#000000;stroke-miterlimit:10;}
	.st1{fill:none;stroke:#000000;stroke-linecap:round;stroke-miterlimit:10;}
	.st2{opacity:0.51;fill:#2A1B11;}
</style>
<path class="st0 iWQobmvW_0" d="M721.9,722c0,0,16.4,6,25,7.7s20.7-0.9,23.2,0c2.6,0.9,16.4,1.7,16.4,5.2c0,3.4,1.7,15.5,0,18.1
	c-1.7,2.6-23.2,4.3-23.2,4.3l-34.8,3.4c0,0-24.6,0-27.2,0s-24.1-7.7-24.1-7.7l-9.5-4.3l-14.6,7.7l-28.4,4.3l-98.1,5.2
	c0,0-72.3,16.7-103.3,19.7c-5,0.5-82.6,0-82.6,0l-85.2-5.2c0,0-169.5-7.7-171.3-11.2c-1.7-3.4,2.6-15.5,0-43
	c-2.6-27.5-3.4-45.6-8.6-55.9c-5.2-10.3-10.3-15.5-7.7-23.2c2.6-7.7,18.9-22.6,24.1-25.1c5.2-2.5,37-30,43-34.3
	c6-4.3,17.2-21.5,22.4-26.7c5.2-5.2,31.8-41.3,34.4-41.3s20.7-39.6,20.7-39.6l25.8-23.2c0,0,5.2-38.7,23.2-58.5
	c18.1-19.8,13.8-37,20.7-39.6c6.9-2.6,29.3,0,31.8,0c2.6,0,31.8,47.3,31.8,47.3s23.2,50.8,25.8,56.8c2.6,6,7.7,25.8,7.7,25.8
	l-9.5,37c0,0-18.1,54.2-20.7,62.8c-2.6,8.6-36.1,33.5-36.1,33.5s-57.7,0.8-69.7,0c-12-0.8-55.1,0-55.1,0s32.7,4.4,35.3,6.1
	c2.6,1.7,37.9,10.3,41.3,7.7c3.4-2.6,41.3-2.6,41.3-2.6s23.2,0,46.5,2.6c23.2,2.6,74.5,7.7,74.5,7.7s65.8-2.6,76.1-1.7
	s54.2-2.6,57.7,12.9c3.4,15.5-6.9,18.9-12,43s-3.5,67.1-3.5,67.1"></path>
<path class="st0 iWQobmvW_1" d="M610.9,734.9c-6.9,5.2,0,14.6,0,14.6h22.4l39.6-7.3c0,0,24.1-0.4,25-7.3c0.9-6.9,35.3-18.1,35.3-18.1V710
	l-18.9-6h-30.1c0,0-16.4,0-24.1,5.2c-7.7,5.2-18.9,17.2-25,17.6S610.9,734.9,610.9,734.9z"></path>
<path class="st0 iWQobmvW_2" d="M771,708.2c0,0-3.4-7.7,0-10.3c3.4-2.6,0-14.6,0-14.6s-18.9,6.9-25.8,0c-6.9-6.9-37.9-15.5-37.9-15.5
	s-17.2,8.6-19.8,10.3c-2.6,1.7-13.4,6.1-17,9.9c-3.6,3.8-6.2,11.6-6.2,11.6l11.2,4.3h31l45.6,4.3H771z"></path>
<path class="st0 iWQobmvW_3" d="M642.7,656.6c-2.6,0-16.4,22.4-18.9,23.2c-2.6,0.9-7.7,8.2-7.7,8.2s27.5,3,30.1,0c2.6-3,24.5-12.4,24.3-15
	c-0.2-2.6,24.8-5.2,24.8-5.2l26.7-4.3c0,0-5.2-9.5-13.8-16.4s-11.2-9.5-18.9-9.5c-7.7,0-33.6,2.6-36.1,5.2S642.7,656.6,642.7,656.6z
	"></path>
<path class="st0 iWQobmvW_4" d="M566.2,673.8l37.9,9.5c0,0,19.8-3.4,22.4-15.5c2.6-12,37.9-27.8,37.9-27.8s36.9,1.7,43.9,7.2
	c7,5.5,14.6,6,20.3,10.3c5.6,4.3,24.5,4.3,27.1,6c2.6,1.7,6.9-12.9,6.9-18.1c0-5.2-7.7-5.2-10.3-7.7c-2.6-2.6-23.6-15.6-23.6-15.6
	l-17.7-8.5l-28.4,4.3L641,629.1c0,0-29.3,16.4-33.2,16.4L566.2,673.8z"></path>
<path class="st0 iWQobmvW_5" d="M633.3,600.7c-2.6,1.7-37,12.9-40.4,18.1c-3.4,5.2-12,17.2-11.2,19.8c0.9,2.6,25.8,7.7,25.8,7.7l19-22.8
	c0,0,17.2-13.3,20.7-13.3c3.4,0,33.8,8.6,33.8,8.6L665.1,605L633.3,600.7z"></path>
<path class="st0 iWQobmvW_6" d="M386.3,445.8c0,0,49.9,25.8,54.2,25c4.3-0.9,78.3-4.3,78.3-4.3l15.5-56.8l-12.9-68l-37-62.8
	c0,0-19.8-3.4-30.1,4.3c-10.3,7.7-37.9,44.8-43,55.9s-26.7,65.4-25,71.4C388,416.5,386.3,445.8,386.3,445.8z"></path>
<path class="st1 iWQobmvW_7" d="M533.9,411.3l10.5,46.7l-19.5,12.7c0,0,28.4,30.1,31,32.7c2.6,2.6,13.6,11.2,15.4,21.5
	c1.8,10.3,7.8,25.8,7.8,29.3c0,3.4-2.6,44.8,0,49.9c2.6,5.2-9.7,48.9-21.2,44.4c-18.8-7.4-159.5-3.1-219-12.7
	c0,0,38.8-72.2,39.7-90.2s1.7-85.2-4.3-99.8c-6-14.6-61.1-94.7-61.1-94.7"></path>
<path class="st1 iWQobmvW_8" d="M313.1,351.1c0,0,47.3-38.7,50.8-40.4c3.4-1.7,45.6-11.2,45.6-11.2l35.3-13.8l24.1-7.6"></path>
<path class="st0 iWQobmvW_9" d="M515.4,235.8c0,0-19.1-19.4-27.5-21.5c-3.6-0.9-10.5,7.6-10.5,16.6c0,9,0.9,29.6,3.5,32.2
	c2.6,2.6,21.8,46.6,21.8,46.6s15.2,23.7,15.9,27.6c0.8,4,18.9,5.4,22.7,1.1c1.9-2.2,0-11.5,0-11.5"></path>
<path class="st0 iWQobmvW_10" d="M481.8,209.1c0,0-0.9-6,0-25.8c0.9-19.8,12.9-45.6,17.2-49.1s19.8-17.2,19.8-17.2s19.8,4.3,22.4,16.4
	s-4.3,30.1-6.9,38.7c-2.6,8.6-12,21.5-15.5,30.1c-3.4,8.6-8.9,12.9-10,15.5C507.6,220.3,481.8,209.1,481.8,209.1z"></path>
<path class="st1 iWQobmvW_11" d="M522.1,117.9c0,0,10.4-12.3,14-16c5.3-5.5,18.6-17.5,36.9-25.9c16.4-7.6,44.2-11.4,61.6-11.4
	c13.6,0,50.7,13.7,50.7,13.7s33.1,21.5,35.7,23.3c2.6,1.7,23.2,24.1,24.1,26.7c0.9,2.6,11.2,16.4,13.8,23.2
	c2.6,6.9,9.5,23.2,9.5,27.5s0,18.9,0,18.9s0.9,25,0,32.7s9.5,40.5,10.3,48.2c0.9,7.7-12.9,44.7-11.2,56.8s-6.9,32-8.6,38.8
	c-1.7,6.8-12.9,24.9-16.4,31.8c-3.4,6.9-6.9,25-18.9,25c-12,0-32.7,1.7-48.2,0c-15.5-1.7-23.2-3.4-30.1-13.8
	c-6.9-10.3-11.2,9.5-29.3-12.9c-18.1-22.4-28.7-27.5-35.9-37s-30.4-21.5-32.1-28.4"></path>
<path class="st0 iWQobmvW_12" d="M524,253c-6,1.7-20.7,12.9-20.7,18.9c0,6,20.7,18.1,20.7,18.1s0.9-12,0-14.6s4.3-12,4.3-12L524,253z"></path>
<path class="st2 iWQobmvW_13" d="M611.5,275.3c2.5,3.5,8.9,10.7,14.5,12.3c9.5,2.8,30.3,1.8,39.7-1.5c7.8-2.7,21-15.5,24.7-22.3
	c1.9-3.5,10.5-29.4,1-35.5c-8.7-5.5-60.9,1.2-73.8,5.4c-1.1,0.4-1.9,0.7-2.3,1.1c-5.2,4.3-7.1,18-7.1,24.7"></path>
<path class="st2 iWQobmvW_14" d="M593.3,250.4"></path>
<path class="st0 iWQobmvW_15" d="M783.9,214.3c2.3,0.3-160.9,16.6-160.9,16.6"></path>
<path class="st2 iWQobmvW_16" d="M748,219.7c0,0-22.7,1.4-26.7,7.7c-5.5,8.6-0.2,25.5-0.2,25.5c0.2,3.9,8.4,20.1,12,21.5
	c3.6,1.4,24.5,0.8,28.1,0c6.9-1.4,22.9-7.2,25.2-12.3c2.3-5.2,5.5-12.6,7.2-20.4c1-4.5,0.5-21.6-2.6-23.7
	c-3.2-2.1-19.2,0.3-19.2,0.3L748,219.7z"></path>
<path class="st0 iWQobmvW_17" d="M701.3,250.7c0.6,1.1,11.5,41.9,14.1,50.2c2.6,8.3,9.2,15.8,7.2,20.4c-2,4.6-6.1,6.8-7.3,7.1s-7.9-5.1-7.9-5.1
	s-4.9-4-7.2-4s-5.4-0.3-4.4,1.7c1,2,2.4,4,2.4,4s0.5,2.6-2.6,2s-8.6-4-10-5.2c-1.4-1.1-10-7.2-10.3-8.6c-0.3-1.4,2-9.5,2.6-10.6
	c0.6-1.1,9.2-5.7,11.5-5.7c2.3,0,4.6,1.4,4.6,1.4"></path>
<path class="st0 iWQobmvW_18" d="M736,320.1l-13.1,8.2l19.1-11.1c0,0,0.6-8.3,0-10"></path>
<path class="st0 iWQobmvW_19" d="M660.5,362l14.6-4.3l16.1-2.6h12.3h10.9l15.5-6.9h10.9c0,0-17,9.2-18,9.5c-0.9,0.3-17,4.3-17,4.3
	s-18.6,2.9-21.2,2s-12.6,0.2-12.6,0.2L660.5,362z"></path>
<path class="st0 iWQobmvW_20" d="M565,490.2c0,0,0.6-36.1,0-37.9s-4.6-14-3.4-20.5c1.1-6.5,12.6-9.4,16.1-6.5c3.4,2.9,10.9,12.9,13.8,14.8
	c2.9,1.9,11.5,16.2,12,21.9c0.6,5.7,5.7,13.8,11.5,19.5c5.7,5.7,17.2,8.6,17.2,8.6l6.3,18.8"></path>
<path class="st0 iWQobmvW_21" d="M712.5,497.1l29.8-36.1c0,0-3.4-24.7-5.7-25.2c-2.3-0.6-8.1-6.9-9.2,0s-9.2,14.3-14.9,17.2
	c-5.7,2.9-17.4,8.5-20.1,14c-2.6,5.4,0,17.9,0,23.9c0,5.4-2.9,21.2-2.9,21.2l2.9,16.1"></path>
<path class="st0 iWQobmvW_22" d="M623,563.1c0,0,6.9-42.5,6.9-45.3c0-2.9,17.7-15.5,20.6-18.9c2.9-3.4,12.1-16.6,16.1-21.2
	c4-4.6,27.3-24.7,29.1-28.1s17.3-12,17.3-12l15.4-4.3"></path>
<path class="st0 iWQobmvW_23" d="M565,490.2l-15.5-36.1c0,0-15.5-74.6-15.2-76.3c0.3-1.7,0-26.4,0-26.4"></path>
<path class="st1 iWQobmvW_24" d="M534.3,351.4L577.6,425.4"></path>
<path class="st0 iWQobmvW_25" d="M584,470.2A6.3,6.3 0,1,1 596.5999999999999,470.2A6.3,6.3 0,1,1 584,470.2"></path>
<path class="st0 iWQobmvW_26" d="M581.2,445.1A5.4,5.4 0,1,1 592,445.1A5.4,5.4 0,1,1 581.2,445.1"></path>
<path class="st0 iWQobmvW_27" d="M640.7,518A4.9,6 0,1,1 650.5,518A4.9,6 0,1,1 640.7,518"></path>
<path transform="matrix(0.9065 -0.4222 0.4222 0.9065 -138.6486 331.9941)" class="st0 iWQobmvW_28" d="M674,479.1A6.3,6.3 0,1,1 686.5999999999999,479.1A6.3,6.3 0,1,1 674,479.1"></path>
<path class="st0 iWQobmvW_29" d="M772.5,641.1c-3.8,2.9-11.9,9.8-10.1,14.6c1.7,4.9,13.3,26.7,16.4,30.1c3.1,3.4,8.7,28.1,8.5,29.8
	s3.8,33.9,3.8,33.9s16.6,12.6,20.1,12.6c3.4,0,56.2-4.6,56.2-4.6v-18.9l-4.1-43.6c0,0-11.4-46.8-13.1-46.6
	c-1.7,0.1-10.9-10.8-10.9-10.8h-44.8L772.5,641.1z"></path>
<path class="st0 iWQobmvW_30" d="M778.8,308.3c0,0,24.3,6.3,26.6,7.5s39,12.5,39,12.5s23.5,0.1,28.7,7c5.2,6.9,16.1,17.5,20.1,28.8
	c4,11.3,27.5,33.7,29.3,35.4c1.7,1.7,17.8,4,24.1,14.3c6.3,10.3,30.4,29.8,30.4,29.8l28.7,17.8l24.7,36.6c0,0,27.5-2.1,33.3,9.3
	c5.7,11.5,36.1,50.5,36.1,50.5l45.9,42.5l22.4,32.1l-4,20.7l-24.7,61.4l-186.5,35c0,0-52.2,6.9-60.2,6.9s-28.7,6.4-25.2,1.1
	c16.6-25.2-24.7-125.1-24.7-125.1c1.1-4.6,30.4-10.4,30.4-10.4l92.9-10.8l39.6-15.8h-77.5c0,0-25.8,14.6-28.1,0
	c-2.3-14.6-2.3-45-2.3-45l-9.8-34.7l-4-22.1l-9.2-35.6l-20.7-118.2l-78.6-16.1c0,0,56.8,71.1,57.9,75.2c1.1,4,28.1,57.4,29.3,62
	s0,18.9,0,21.2c0,2.3-33.9,11.5-33.9,11.5s-32.1,1.7-45.9-3.4c-13.8-5.2-33.3-6.9-33.3-6.9s-8.6,4-13.2,8.6
	c-4.6,4.6-14.6,23.8-14.6,23.8s-11.2,30.7-11.8,35.9c-0.6,5.2,0,32.1,0,32.1s-4,16.6-4,20.1c0,3.4,0,9.8,0,9.8"></path>
<path class="st0 iWQobmvW_31" d="M769.5,204.5c0,0,33.8,20.1,33.7,21.3c-0.1,2.3-9,1.5-9,1.5"></path>
<path class="st0 iWQobmvW_32" d="M522.1,220.3L565.7,236.6L608.1,254.3"></path>
<path class="st0 iWQobmvW_33" d="M695.7,237.3c0,0,9.9-3.1,12.6-3.3c3.2-0.3,10.5,1.7,10.5,1.7"></path>
<path class="st1 iWQobmvW_34" d="M714.2,431.9c0,0-11.1,4.2-14.3,6.4c-5.2,3.6-13.4,13.8-18.9,16.9c-5.1,2.8-16.6,7.7-22.4,6.6c-1.8-0.3-6-4-6-4
	"></path>
<style>.iWQobmvW_0{stroke-dasharray:2238 2240;stroke-dashoffset:2239;animation:iWQobmvW_draw_0 30700ms linear 0ms infinite,iWQobmvW_fade 30700ms linear 0ms infinite;}.iWQobmvW_1{stroke-dasharray:285 287;stroke-dashoffset:286;animation:iWQobmvW_draw_1 30700ms linear 0ms infinite,iWQobmvW_fade 30700ms linear 0ms infinite;}.iWQobmvW_2{stroke-dasharray:258 260;stroke-dashoffset:259;animation:iWQobmvW_draw_2 30700ms linear 0ms infinite,iWQobmvW_fade 30700ms linear 0ms infinite;}.iWQobmvW_3{stroke-dasharray:251 253;stroke-dashoffset:252;animation:iWQobmvW_draw_3 30700ms linear 0ms infinite,iWQobmvW_fade 30700ms linear 0ms infinite;}.iWQobmvW_4{stroke-dasharray:453 455;stroke-dashoffset:454;animation:iWQobmvW_draw_4 30700ms linear 0ms infinite,iWQobmvW_fade 30700ms linear 0ms infinite;}.iWQobmvW_5{stroke-dasharray:238 240;stroke-dashoffset:239;animation:iWQobmvW_draw_5 30700ms linear 0ms infinite,iWQobmvW_fade 30700ms linear 0ms infinite;}.iWQobmvW_6{stroke-dasharray:553 555;stroke-dashoffset:554;animation:iWQobmvW_draw_6 30700ms linear 0ms infinite,iWQobmvW_fade 30700ms linear 0ms infinite;}.iWQobmvW_7{stroke-dasharray:808 810;stroke-dashoffset:809;animation:iWQobmvW_draw_7 30700ms linear 0ms infinite,iWQobmvW_fade 30700ms linear 0ms infinite;}.iWQobmvW_8{stroke-dasharray:176 178;stroke-dashoffset:177;animation:iWQobmvW_draw_8 30700ms linear 0ms infinite,iWQobmvW_fade 30700ms linear 0ms infinite;}.iWQobmvW_9{stroke-dasharray:209 211;stroke-dashoffset:210;animation:iWQobmvW_draw_9 30700ms linear 0ms infinite,iWQobmvW_fade 30700ms linear 0ms infinite;}.iWQobmvW_10{stroke-dasharray:255 257;stroke-dashoffset:256;animation:iWQobmvW_draw_10 30700ms linear 0ms infinite,iWQobmvW_fade 30700ms linear 0ms infinite;}.iWQobmvW_11{stroke-dasharray:798 800;stroke-dashoffset:799;animation:iWQobmvW_draw_11 30700ms linear 0ms infinite,iWQobmvW_fade 30700ms linear 0ms infinite;}.iWQobmvW_12{stroke-dasharray:96 98;stroke-dashoffset:97;animation:iWQobmvW_draw_12 30700ms linear 0ms infinite,iWQobmvW_fade 30700ms linear 0ms infinite;}.iWQobmvW_13{stroke-dasharray:235 237;stroke-dashoffset:236;animation:iWQobmvW_draw_13 30700ms linear 0ms infinite,iWQobmvW_fade 30700ms linear 0ms infinite;}.iWQobmvW_14{stroke-dasharray:0 2;stroke-dashoffset:1;animation:iWQobmvW_draw_14 30700ms linear 0ms infinite,iWQobmvW_fade 30700ms linear 0ms infinite;}.iWQobmvW_15{stroke-dasharray:162 164;stroke-dashoffset:163;animation:iWQobmvW_draw_15 30700ms linear 0ms infinite,iWQobmvW_fade 30700ms linear 0ms infinite;}.iWQobmvW_16{stroke-dasharray:226 228;stroke-dashoffset:227;animation:iWQobmvW_draw_16 30700ms linear 0ms infinite,iWQobmvW_fade 30700ms linear 0ms infinite;}.iWQobmvW_17{stroke-dasharray:171 173;stroke-dashoffset:172;animation:iWQobmvW_draw_17 30700ms linear 0ms infinite,iWQobmvW_fade 30700ms linear 0ms infinite;}.iWQobmvW_18{stroke-dasharray:48 50;stroke-dashoffset:49;animation:iWQobmvW_draw_18 30700ms linear 0ms infinite,iWQobmvW_fade 30700ms linear 0ms infinite;}.iWQobmvW_19{stroke-dasharray:167 169;stroke-dashoffset:168;animation:iWQobmvW_draw_19 30700ms linear 0ms infinite,iWQobmvW_fade 30700ms linear 0ms infinite;}.iWQobmvW_20{stroke-dasharray:187 189;stroke-dashoffset:188;animation:iWQobmvW_draw_20 30700ms linear 0ms infinite,iWQobmvW_fade 30700ms linear 0ms infinite;}.iWQobmvW_21{stroke-dasharray:195 197;stroke-dashoffset:196;animation:iWQobmvW_draw_21 30700ms linear 0ms infinite,iWQobmvW_fade 30700ms linear 0ms infinite;}.iWQobmvW_22{stroke-dasharray:179 181;stroke-dashoffset:180;animation:iWQobmvW_draw_22 30700ms linear 0ms infinite,iWQobmvW_fade 30700ms linear 0ms infinite;}.iWQobmvW_23{stroke-dasharray:144 146;stroke-dashoffset:145;animation:iWQobmvW_draw_23 30700ms linear 0ms infinite,iWQobmvW_fade 30700ms linear 0ms infinite;}.iWQobmvW_24{stroke-dasharray:86 88;stroke-dashoffset:87;animation:iWQobmvW_draw_24 30700ms linear 0ms infinite,iWQobmvW_fade 30700ms linear 0ms infinite;}.iWQobmvW_25{stroke-dasharray:40 42;stroke-dashoffset:41;animation:iWQobmvW_draw_25 30700ms linear 0ms infinite,iWQobmvW_fade 30700ms linear 0ms infinite;}.iWQobmvW_26{stroke-dasharray:34 36;stroke-dashoffset:35;animation:iWQobmvW_draw_26 30700ms linear 0ms infinite,iWQobmvW_fade 30700ms linear 0ms infinite;}.iWQobmvW_27{stroke-dasharray:35 37;stroke-dashoffset:36;animation:iWQobmvW_draw_27 30700ms linear 0ms infinite,iWQobmvW_fade 30700ms linear 0ms infinite;}.iWQobmvW_28{stroke-dasharray:40 42;stroke-dashoffset:41;animation:iWQobmvW_draw_28 30700ms linear 0ms infinite,iWQobmvW_fade 30700ms linear 0ms infinite;}.iWQobmvW_29{stroke-dasharray:393 395;stroke-dashoffset:394;animation:iWQobmvW_draw_29 30700ms linear 0ms infinite,iWQobmvW_fade 30700ms linear 0ms infinite;}.iWQobmvW_30{stroke-dasharray:2090 2092;stroke-dashoffset:2091;animation:iWQobmvW_draw_30 30700ms linear 0ms infinite,iWQobmvW_fade 30700ms linear 0ms infinite;}.iWQobmvW_31{stroke-dasharray:50 52;stroke-dashoffset:51;animation:iWQobmvW_draw_31 30700ms linear 0ms infinite,iWQobmvW_fade 30700ms linear 0ms infinite;}.iWQobmvW_32{stroke-dasharray:93 95;stroke-dashoffset:94;animation:iWQobmvW_draw_32 30700ms linear 0ms infinite,iWQobmvW_fade 30700ms linear 0ms infinite;}.iWQobmvW_33{stroke-dasharray:24 26;stroke-dashoffset:25;animation:iWQobmvW_draw_33 30700ms linear 0ms infinite,iWQobmvW_fade 30700ms linear 0ms infinite;}.iWQobmvW_34{stroke-dasharray:73 75;stroke-dashoffset:74;animation:iWQobmvW_draw_34 30700ms linear 0ms infinite,iWQobmvW_fade 30700ms linear 0ms infinite;}@keyframes iWQobmvW_draw{100%{stroke-dashoffset:0;}}@keyframes iWQobmvW_fade{0%{stroke-opacity:1;}98.6970684039088%{stroke-opacity:1;}100%{stroke-opacity:0;}}@keyframes iWQobmvW_draw_0{24.104234527687296%{stroke-dashoffset: 2239}37.75677172091953%{ stroke-dashoffset: 0;}100%{ stroke-dashoffset: 0;}}@keyframes iWQobmvW_draw_1{37.75677172091953%{stroke-dashoffset: 286}39.500686699599484%{ stroke-dashoffset: 0;}100%{ stroke-dashoffset: 0;}}@keyframes iWQobmvW_draw_2{39.500686699599484%{stroke-dashoffset: 259}41.07996634812434%{ stroke-dashoffset: 0;}100%{ stroke-dashoffset: 0;}}@keyframes iWQobmvW_draw_3{41.079966348124344%{stroke-dashoffset: 252}42.61656276290528%{ stroke-dashoffset: 0;}100%{ stroke-dashoffset: 0;}}@keyframes iWQobmvW_draw_4{42.61656276290528%{stroke-dashoffset: 454}45.38487535143919%{ stroke-dashoffset: 0;}100%{ stroke-dashoffset: 0;}}@keyframes iWQobmvW_draw_5{45.38487535143919%{stroke-dashoffset: 239}46.84220290355287%{ stroke-dashoffset: 0;}100%{ stroke-dashoffset: 0;}}@keyframes iWQobmvW_draw_6{46.84220290355285%{stroke-dashoffset: 554}50.2202759741427%{ stroke-dashoffset: 0;}100%{ stroke-dashoffset: 0;}}@keyframes iWQobmvW_draw_7{50.2202759741427%{stroke-dashoffset: 809}55.153238273975155%{ stroke-dashoffset: 0;}100%{ stroke-dashoffset: 0;}}@keyframes iWQobmvW_draw_8{55.153238273975155%{stroke-dashoffset: 177}56.23251432721415%{ stroke-dashoffset: 0;}100%{ stroke-dashoffset: 0;}}@keyframes iWQobmvW_draw_9{56.232514327214155%{stroke-dashoffset: 210}57.51301133953161%{ stroke-dashoffset: 0;}100%{ stroke-dashoffset: 0;}}@keyframes iWQobmvW_draw_10{57.513011339531595%{stroke-dashoffset: 256}59.073998173594774%{ stroke-dashoffset: 0;}100%{ stroke-dashoffset: 0;}}@keyframes iWQobmvW_draw_11{59.07399817359479%{stroke-dashoffset: 799}63.945984425221646%{ stroke-dashoffset: 0;}100%{ stroke-dashoffset: 0;}}@keyframes iWQobmvW_draw_12{63.945984425221646%{stroke-dashoffset: 97}64.53745209281591%{ stroke-dashoffset: 0;}100%{ stroke-dashoffset: 0;}}@keyframes iWQobmvW_draw_13{64.53745209281591%{stroke-dashoffset: 236}65.9764868304679%{ stroke-dashoffset: 0;}100%{ stroke-dashoffset: 0;}}@keyframes iWQobmvW_draw_14{65.97648683046789%{stroke-dashoffset: 1}65.98258443528844%{ stroke-dashoffset: 0;}100%{ stroke-dashoffset: 0;}}@keyframes iWQobmvW_draw_15{65.98258443528844%{stroke-dashoffset: 163}66.9764940210396%{ stroke-dashoffset: 0;}100%{ stroke-dashoffset: 0;}}@keyframes iWQobmvW_draw_16{66.9764940210396%{stroke-dashoffset: 227}68.36065031530657%{ stroke-dashoffset: 0;}100%{ stroke-dashoffset: 0;}}@keyframes iWQobmvW_draw_17{68.36065031530657%{stroke-dashoffset: 172}69.40943834444276%{ stroke-dashoffset: 0;}100%{ stroke-dashoffset: 0;}}@keyframes iWQobmvW_draw_18{69.40943834444276%{stroke-dashoffset: 49}69.70822098065017%{ stroke-dashoffset: 0;}100%{ stroke-dashoffset: 0;}}@keyframes iWQobmvW_draw_19{69.70822098065017%{stroke-dashoffset: 168}70.73261859050412%{ stroke-dashoffset: 0;}100%{ stroke-dashoffset: 0;}}@keyframes iWQobmvW_draw_20{70.73261859050413%{stroke-dashoffset: 188}71.87896829676927%{ stroke-dashoffset: 0;}100%{ stroke-dashoffset: 0;}}@keyframes iWQobmvW_draw_21{71.87896829676927%{stroke-dashoffset: 196}73.0740988415989%{ stroke-dashoffset: 0;}100%{ stroke-dashoffset: 0;}}@keyframes iWQobmvW_draw_22{73.0740988415989%{stroke-dashoffset: 180}74.17166770929957%{ stroke-dashoffset: 0;}100%{ stroke-dashoffset: 0;}}@keyframes iWQobmvW_draw_23{74.17166770929957%{stroke-dashoffset: 145}75.05582040828067%{ stroke-dashoffset: 0;}100%{ stroke-dashoffset: 0;}}@keyframes iWQobmvW_draw_24{75.05582040828067%{stroke-dashoffset: 87}75.58631202766931%{ stroke-dashoffset: 0;}100%{ stroke-dashoffset: 0;}}@keyframes iWQobmvW_draw_25{75.58631202766932%{stroke-dashoffset: 41}75.83631382531225%{ stroke-dashoffset: 0;}100%{ stroke-dashoffset: 0;}}@keyframes iWQobmvW_draw_26{75.83631382531225%{stroke-dashoffset: 35}76.04972999403184%{ stroke-dashoffset: 0;}100%{ stroke-dashoffset: 0;}}@keyframes iWQobmvW_draw_27{76.04972999403182%{stroke-dashoffset: 36}76.26924376757196%{ stroke-dashoffset: 0;}100%{ stroke-dashoffset: 0;}}@keyframes iWQobmvW_draw_28{76.26924376757196%{stroke-dashoffset: 41}76.51924556521489%{ stroke-dashoffset: 0;}100%{ stroke-dashoffset: 0;}}@keyframes iWQobmvW_draw_29{76.51924556521489%{stroke-dashoffset: 394}78.92170186451524%{ stroke-dashoffset: 0;}100%{ stroke-dashoffset: 0;}}@keyframes iWQobmvW_draw_30{78.92170186451524%{stroke-dashoffset: 2091}91.6717935443047%{ stroke-dashoffset: 0;}100%{ stroke-dashoffset: 0;}}@keyframes iWQobmvW_draw_31{91.67179354430472%{stroke-dashoffset: 51}91.98277139015323%{ stroke-dashoffset: 0;}100%{ stroke-dashoffset: 0;}}@keyframes iWQobmvW_draw_32{91.98277139015323%{stroke-dashoffset: 94}92.5559462432858%{ stroke-dashoffset: 0;}100%{ stroke-dashoffset: 0;}}@keyframes iWQobmvW_draw_33{92.5559462432858%{stroke-dashoffset: 25}92.70838636379979%{ stroke-dashoffset: 0;}100%{ stroke-dashoffset: 0;}}@keyframes iWQobmvW_draw_34{92.70838636379978%{stroke-dashoffset: 74}93.15960912052117%{ stroke-dashoffset: 0;}100%{ stroke-dashoffset: 0;}}</style></svg>
